<?xml version="1.0" encoding="UTF-8"?>
<svg width="60px" height="60px" viewBox="0 0 60 60" version="1.1" xmlns="http://www.w3.org/2000/svg" xmlns:xlink="http://www.w3.org/1999/xlink">
    <!-- Generator: Sketch 47.1 (45422) - http://www.bohemiancoding.com/sketch -->
    <title>1research_unselected</title>
    <desc>Created with Sketch.</desc>
    <defs>
        <circle id="path-1" cx="30" cy="30" r="30"></circle>
        <polygon id="path-2" points="0 30 0 0 25.36875 0 25.36875 30"></polygon>
    </defs>
    <g id="2017-10-16" stroke="none" stroke-width="1" fill="none" fill-rule="evenodd">
        <g id="1research_unselected">
            <g id="Oval-4">
                <use fill="#FFFFFF" fill-rule="evenodd" xlink:href="#path-1"></use>
                <circle stroke="#B3B9BE" stroke-width="4" cx="30" cy="30" r="28"></circle>
            </g>
            <g id="search-copy" transform="translate(17.000000, 15.000000)">
                <polyline id="Fill-1" fill="#3A4751" points="24.7722656 0.597597656 4.23164063 0.597597656 4.23164063 29.4024023 19.8505078 29.4024023 24.7722656 24.4806445 24.7722656 0.597597656"></polyline>
                <path d="M14.5913086,6.25757812 C18.1723828,6.25757812 21.0753516,9.16060547 21.0753516,12.7416211 C21.0753516,16.3226953 18.1723828,19.2257227 14.5913086,19.2257227 C11.0102344,19.2257227 8.10726563,16.3226953 8.10726563,12.7416211 C8.10726563,9.16060547 11.0102344,6.25757812 14.5913086,6.25757812" id="Fill-3" fill="#3A4751"></path>
                <g id="Group-7">
                    <mask id="mask-3" fill="white">
                        <use xlink:href="#path-2"></use>
                    </mask>
                    <g id="Clip-5"></g>
                    <path d="M9.04060547,20.2903711 L2.89212891,26.4388477 C2.36701172,26.9639648 1.51570312,26.9639648 0.990527344,26.4388477 C0.465410156,25.9137305 0.465410156,25.0623633 0.990527344,24.5372461 L7.13900391,18.3888281 L9.04060547,20.2903711" id="Fill-4" fill="#3A4751" mask="url(#mask-3)"></path>
                    <path d="M8.70509766,12.7413867 C8.70509766,9.49558594 11.3457422,6.85494141 14.591543,6.85494141 C17.8373438,6.85494141 20.4779883,9.49558594 20.4779883,12.7413867 C20.4779883,15.9871875 17.8373438,18.627832 14.591543,18.627832 C11.3457422,18.627832 8.70509766,15.9871875 8.70509766,12.7413867 Z M4.82923828,25.3468945 L9.46318359,20.7129492 C9.69650391,20.4796289 9.69650391,20.1011719 9.46318359,19.8678516 L8.9165625,19.3212305 L10.059375,18.178418 C11.2883789,19.2046289 12.8690039,19.8230859 14.591543,19.8230859 C18.4964063,19.8230859 21.6732422,16.64625 21.6732422,12.7413867 C21.6732422,8.83658203 18.4964063,5.65974609 14.591543,5.65974609 C10.6866797,5.65974609 7.50990234,8.83658203 7.50990234,12.7413867 C7.50990234,14.4943359 8.15039062,16.100332 9.20923828,17.3382422 L8.07140625,18.4761328 L7.56158203,17.9663086 C7.44943359,17.8542188 7.2975,17.7912305 7.13900391,17.7912305 C6.98050781,17.7912305 6.82851563,17.8542188 6.71642578,17.9663086 L4.82923828,19.8534961 L4.82923828,1.19519531 L24.1746094,1.19519531 L24.1746094,23.8826953 L19.8467578,23.8787695 C19.6877344,23.8787695 19.5357422,23.9417578 19.4236523,24.0537891 C19.3114453,24.1659375 19.2483984,24.3182227 19.2485742,24.4768945 L19.2526172,28.8048047 L4.82923828,28.8048047 L4.82923828,25.3468945 Z M2.46955078,26.0162109 C2.17822266,26.3075391 1.70431641,26.3074805 1.41310547,26.0162109 C1.12189453,25.7249414 1.12189453,25.2510352 1.41310547,24.9598242 L7.13900391,19.2339258 L8.19544922,20.2904297 L2.46955078,26.0162109 Z M25.7722656,25.4806445 L20.8505078,30.4024023 L20.8462305,25.4764258 L25.7722656,25.4806445 Z M4.23164062,0 C3.90164063,0 3.63404297,0.267539062 3.63404297,0.597597656 L3.63404297,21.0486328 L0.567949219,24.1147266 C-0.189316406,24.8719922 -0.189316406,26.1041602 0.567949219,26.8614258 C0.946582031,27.2400586 1.44398438,27.429375 1.94126953,27.429375 C2.43861328,27.429375 2.93607422,27.2400586 3.31464844,26.8614258 L3.63398437,26.5420898 L3.63398437,29.4024023 C3.63398437,29.7324609 3.90158203,30 4.23158203,30 L19.8504492,30 C20.0089453,30 20.1609375,29.9370117 20.2730273,29.8249805 L25.1947266,24.9032227 C25.3067578,24.7911914 25.3697461,24.6391992 25.3697461,24.4806445 L25.3697461,0.597597656 C25.3698633,0.267539062 25.1022656,0 24.7722656,0 L4.23164062,0 Z" id="Fill-6" fill="#FFFFFF" mask="url(#mask-3)"></path>
                </g>
                <path d="M11.2748438,13.3688672 L17.9680664,13.3688672 C18.2980664,13.3688672 18.5656641,13.1013281 18.5656641,12.7712695 C18.5656641,12.4412109 18.2980664,12.1736719 17.9680664,12.1736719 L11.2748438,12.1736719 C10.9448437,12.1736719 10.6771875,12.4412109 10.6771875,12.7712695 C10.6771875,13.1013281 10.9448437,13.3688672 11.2748438,13.3688672" id="Fill-8" fill="#FFFFFF"></path>
                <path d="M18.5656641,15.1019531 C18.5656641,14.7718945 18.2980664,14.5043555 17.9680664,14.5043555 L11.2748438,14.5043555 C10.9448437,14.5043555 10.6771875,14.7718945 10.6771875,15.1019531 C10.6771875,15.4320117 10.9448437,15.6995508 11.2748438,15.6995508 L17.9680664,15.6995508 C18.298125,15.6995508 18.5656641,15.4320117 18.5656641,15.1019531" id="Fill-9" fill="#FFFFFF"></path>
                <path d="M11.2748438,10.978418 L13.9640625,10.978418 C14.2940625,10.978418 14.5616602,10.7108789 14.5616602,10.3808203 C14.5616602,10.0507617 14.2940625,9.78322266 13.9640625,9.78322266 L11.2748438,9.78322266 C10.9448438,9.78322266 10.6771875,10.0507617 10.6771875,10.3808203 C10.6771875,10.7108789 10.9448438,10.978418 11.2748438,10.978418" id="Fill-10" fill="#FFFFFF"></path>
                <path d="M15.7569141,10.978418 L16.1154492,10.978418 C16.4454492,10.978418 16.7130469,10.7108789 16.7130469,10.3808203 C16.7130469,10.0507617 16.4454492,9.78322266 16.1154492,9.78322266 L15.7569141,9.78322266 C15.4269141,9.78322266 15.1592578,10.0507617 15.1592578,10.3808203 C15.1592578,10.7108789 15.4269141,10.978418 15.7569141,10.978418" id="Fill-11" fill="#FFFFFF"></path>
            </g>
        </g>
    </g>
</svg>