<?xml version="1.0" encoding="UTF-8"?>
<svg width="60px" height="60px" viewBox="0 0 60 60" version="1.1" xmlns="http://www.w3.org/2000/svg" xmlns:xlink="http://www.w3.org/1999/xlink">
    <!-- Generator: Sketch 47.1 (45422) - http://www.bohemiancoding.com/sketch -->
    <title>2analysis copy</title>
    <desc>Created with Sketch.</desc>
    <defs>
        <circle id="path-1" cx="30" cy="30" r="30"></circle>
        <polygon id="path-2" points="0.003984375 27.0897656 34 27.0897656 34 0.0564453125 0.003984375 0.0564453125"></polygon>
    </defs>
    <g id="2017-10-16" stroke="none" stroke-width="1" fill="none" fill-rule="evenodd">
        <g id="2analysis-copy">
            <g id="Oval-4">
                <use fill="#FFFFFF" fill-rule="evenodd" xlink:href="#path-1"></use>
                <circle stroke="#B3B9BE" stroke-width="4" cx="30" cy="30" r="28"></circle>
            </g>
            <g id="analytics-copy" transform="translate(13.000000, 16.000000)">
                <path d="M3.02248047,23.0837422 L5.06248047,23.0837422 L5.06248047,20.6773125 L3.02248047,20.6773125 L3.02248047,23.0837422 Z M8.43976953,9.32204297 C8.56448047,9.01604297 8.63248047,8.68135547 8.63248047,8.33 C8.63248047,7.29492578 8.0378125,6.39804297 7.17048047,5.96434375 C6.81533984,5.78604297 6.41338281,5.68557031 5.98798438,5.68557031 C4.52751172,5.68557031 3.34355469,6.86952734 3.34355469,8.33 C3.34355469,9.79047266 4.52751172,10.9744297 5.98798438,10.9744297 C7.09789844,10.9744297 8.04764062,10.2906445 8.43976953,9.32204297 Z M6.76546875,23.0837422 L8.80546875,23.0837422 L8.80546875,19.2190977 L6.76546875,19.2190977 L6.76546875,23.0837422 Z M10.5085234,23.0837422 L12.5485234,23.0837422 L12.5485234,17.4457852 L10.5085234,17.4457852 L10.5085234,23.0837422 Z M30.0214688,13.6695273 C31.6443711,12.0465586 31.6443711,9.41574219 30.0214688,7.79277344 C28.7884375,6.55974219 26.9742852,6.26357031 25.4624805,6.90425781 C24.9834258,7.106 24.5346523,7.40296875 24.1447813,7.79277344 C22.9940273,8.94352734 22.6593398,10.6004297 23.1406523,12.0458281 C23.3378125,12.6389688 23.6725664,13.1973125 24.1447813,13.6695273 C25.7676836,15.2924297 28.3985664,15.2924297 30.0214688,13.6695273 Z M0.566910156,26.5267734 L33.4335547,26.5267734 L33.4335547,0.623355469 L0.566910156,0.623355469 L0.566910156,26.5267734 Z" id="Fill-1" fill="#3A4751"></path>
                <path d="M30.0214688,7.79277344 C31.6443711,9.41574219 31.6443711,12.0465586 30.0214688,13.6695273 C28.3985664,15.2924297 25.7676836,15.2924297 24.1447812,13.6695273 C23.6725664,13.1973125 23.3378125,12.6389687 23.1406523,12.0458281 L23.1413828,12.0458281 L27.083125,10.7311836 L25.4624805,6.90505469 L25.4624805,6.90425781 C26.9742852,6.26357031 28.7884375,6.55974219 30.0214688,7.79277344" id="Fill-2" fill="#3A4751"></path>
                <path d="M25.4624805,6.90505469 L27.083125,10.7311836 L23.1413828,12.0458281 L23.1406523,12.0458281 C22.6593398,10.6004297 22.9940273,8.94352734 24.1447813,7.79277344 C24.5346523,7.40296875 24.9834258,7.106 25.4624805,6.90425781 L25.4624805,6.90505469" id="Fill-3" fill="#3A4751"></path>
                <polygon id="Fill-4" fill="#3A4751" points="10.5082578 23.0838086 12.5482578 23.0838086 12.5482578 17.4458516 10.5082578 17.4458516"></polygon>
                <polygon id="Fill-5" fill="#3A4751" points="6.76526953 23.0838086 8.80526953 23.0838086 8.80526953 19.2191641 6.76526953 19.2191641"></polygon>
                <path d="M8.63248047,8.33 C8.63248047,8.68135547 8.56448047,9.01604297 8.43976953,9.32204297 L8.43903906,9.32204297 L5.98798437,8.33 L7.17048047,5.96434375 C8.0378125,6.39804297 8.63248047,7.29492578 8.63248047,8.33" id="Fill-6" fill="#3A4751"></path>
                <path d="M8.43903906,9.32204297 L8.43976953,9.32204297 C8.04764062,10.2906445 7.09789844,10.9744297 5.98798437,10.9744297 C4.52751172,10.9744297 3.34355469,9.79047266 3.34355469,8.33 L5.98798437,8.33 L8.43903906,9.32204297" id="Fill-7" fill="#3A4751"></path>
                <path d="M7.17048047,5.96434375 L5.98798437,8.33 L3.34355469,8.33 C3.34355469,6.86952734 4.52751172,5.68557031 5.98798437,5.68557031 C6.41338281,5.68557031 6.81533984,5.78604297 7.17048047,5.96434375" id="Fill-8" fill="#3A4751"></path>
                <g id="Group-12">
                    <mask id="mask-3" fill="white">
                        <use xlink:href="#path-2"></use>
                    </mask>
                    <g id="Clip-10"></g>
                    <polygon id="Fill-9" fill="#4D94C4" mask="url(#mask-3)" points="3.02221484 23.0838086 5.06221484 23.0838086 5.06221484 20.6773789 3.02221484 20.6773789"></polygon>
                    <path d="M1.13335547,25.9605273 L32.8666445,25.9605273 L32.8666445,1.18980078 L1.13335547,1.18980078 L1.13335547,25.9605273 Z M33.4333555,0.0564453125 L0.566644531,0.0564453125 C0.253738281,0.0564453125 0,0.310183594 0,0.623089844 L0,26.5271055 C0,26.8400781 0.253738281,27.09375 0.566644531,27.09375 L33.4333555,27.09375 C33.7462617,27.09375 34,26.8400781 34,26.5271055 L34,0.623089844 C34,0.310183594 33.7462617,0.0564453125 33.4333555,0.0564453125 L33.4333555,0.0564453125 Z" id="Fill-11" fill="#FFFFFF" mask="url(#mask-3)"></path>
                </g>
                <path d="M5.98778516,6.25201563 C6.12,6.25201563 6.24916016,6.26489844 6.37453516,6.28867188 L5.63749219,7.76308984 L3.98915625,7.76308984 C4.23658594,6.89210547 5.03857422,6.25201563 5.98778516,6.25201563 Z M8.05315234,8.55465234 L6.76878906,8.03469141 L7.38789453,6.79608203 C7.80399609,7.17625781 8.06557031,7.72304688 8.06557031,8.32980078 C8.06557031,8.40576953 8.0611875,8.48074219 8.05315234,8.55465234 Z M5.98778516,10.4075859 C5.03857422,10.4075859 4.23658594,9.76742969 3.98915625,8.89644531 L5.87748438,8.89644531 L7.62675781,9.60460156 C7.24618359,10.0926875 6.65317578,10.4075859 5.98778516,10.4075859 Z M5.98778516,11.540875 C7.75844141,11.540875 9.19885938,10.1003906 9.19885938,8.32980078 C9.19885938,6.55914453 7.75844141,5.11866016 5.98778516,5.11866016 C4.21712891,5.11866016 2.77664453,6.55914453 2.77664453,8.32980078 C2.77664453,10.1003906 4.21712891,11.540875 5.98778516,11.540875 L5.98778516,11.540875 Z" id="Fill-13" fill="#FFFFFF"></path>
                <path d="M10.5211406,7.44825781 L19.8522148,7.44825781 C20.1651875,7.44825781 20.4188594,7.19458594 20.4188594,6.88161328 C20.4188594,6.56864063 20.1651875,6.31490234 19.8522148,6.31490234 L10.5211406,6.31490234 C10.208168,6.31490234 9.95442969,6.56864063 9.95442969,6.88161328 C9.95442969,7.19458594 10.208168,7.44825781 10.5211406,7.44825781" id="Fill-14" fill="#FFFFFF"></path>
                <path d="M10.5211406,9.60599609 L17.4235391,9.60599609 C17.7365117,9.60599609 17.99025,9.35225781 17.99025,9.03935156 C17.99025,8.72637891 17.7365117,8.47264063 17.4235391,8.47264063 L10.5211406,8.47264063 C10.208168,8.47264063 9.95442969,8.72637891 9.95442969,9.03935156 C9.95442969,9.35225781 10.208168,9.60599609 10.5211406,9.60599609" id="Fill-15" fill="#FFFFFF"></path>
                <path d="M31.0155703,18.2856914 L17.4911406,18.2856914 C17.178168,18.2856914 16.9244297,18.5393633 16.9244297,18.8523359 C16.9244297,19.1653086 17.178168,19.4189805 17.4911406,19.4189805 L31.0155703,19.4189805 C31.3284766,19.4189805 31.5822148,19.1653086 31.5822148,18.8523359 C31.5822148,18.5393633 31.3284766,18.2856914 31.0155703,18.2856914" id="Fill-16" fill="#FFFFFF"></path>
                <path d="M31.0155703,20.4011953 L20.74,20.4011953 C20.4270273,20.4011953 20.1733555,20.6549336 20.1733555,20.9679063 C20.1733555,21.2808125 20.4270273,21.5345508 20.74,21.5345508 L31.0155703,21.5345508 C31.3284766,21.5345508 31.5822148,21.2808125 31.5822148,20.9679063 C31.5822148,20.6549336 31.3284766,20.4011953 31.0155703,20.4011953" id="Fill-17" fill="#FFFFFF"></path>
                <path d="M31.5822148,23.0834102 C31.5822148,22.7705039 31.3284766,22.5167656 31.0155703,22.5167656 L15.0357695,22.5167656 C14.7228633,22.5167656 14.469125,22.7705039 14.469125,23.0834102 C14.469125,23.3963828 14.7228633,23.6501211 15.0357695,23.6501211 L31.0155703,23.6501211 C31.3284766,23.6501211 31.5822148,23.3964492 31.5822148,23.0834102" id="Fill-18" fill="#FFFFFF"></path>
                <path d="M15.9894961,4.23671875 C16.1001289,4.34728516 16.2452266,4.40266797 16.3901914,4.40266797 C16.5351563,4.40266797 16.6802539,4.34741797 16.7908867,4.23671875 L16.9244297,4.10310937 L17.0580391,4.23671875 C17.1686719,4.34728516 17.3137031,4.40266797 17.458668,4.40266797 C17.6036992,4.40266797 17.7487305,4.34741797 17.8593633,4.23671875 C18.0806953,4.01538672 18.0806953,3.65659375 17.8593633,3.43539453 L17.7257539,3.30178516 L17.8593633,3.16817578 C18.0806953,2.94691016 18.0806953,2.58811719 17.8593633,2.36685156 C17.6380977,2.14558594 17.2792383,2.14558594 17.0580391,2.36685156 L16.9244297,2.50039453 L16.7908867,2.36678516 C16.5695547,2.14545312 16.2107617,2.14545312 15.9894961,2.36678516 C15.7682305,2.58811719 15.7682305,2.94691016 15.9894961,3.16810937 L16.1231055,3.30171875 L15.9894961,3.43526172 C15.7682305,3.65659375 15.7682305,4.01538672 15.9894961,4.23671875" id="Fill-19" fill="#FFFFFF"></path>
                <path d="M19.3422148,3.86836328 L22.5155703,3.86836328 C22.8284766,3.86836328 23.0822148,3.614625 23.0822148,3.30171875 C23.0822148,2.98874609 22.8284766,2.73500781 22.5155703,2.73500781 L19.3422148,2.73500781 C19.0292422,2.73500781 18.7755703,2.98874609 18.7755703,3.30171875 C18.7755703,3.614625 19.0292422,3.86836328 19.3422148,3.86836328" id="Fill-20" fill="#FFFFFF"></path>
                <path d="M11.4844297,3.86836328 L14.6577852,3.86836328 C14.9707578,3.86836328 15.2244297,3.614625 15.2244297,3.30171875 C15.2244297,2.98874609 14.9707578,2.73500781 14.6577852,2.73500781 L11.4844297,2.73500781 C11.1715234,2.73500781 10.9177852,2.98874609 10.9177852,3.30171875 C10.9177852,3.614625 11.1715234,3.86836328 11.4844297,3.86836328" id="Fill-21" fill="#FFFFFF"></path>
                <path d="M24.5456094,8.19353516 C24.739582,7.99962891 24.9523477,7.83148828 25.1790586,7.68891406 L26.322375,10.3876641 L23.5443359,11.3140977 C23.3644414,10.2119531 23.6974688,9.04167578 24.5456094,8.19353516 Z M29.6210391,8.19353516 C31.0202852,9.59291406 31.0202852,11.8697188 29.6210391,13.2689648 C28.9431641,13.9469063 28.0418984,14.3201758 27.0833242,14.3201758 C26.1246836,14.3201758 25.2234844,13.9469063 24.5456094,13.2689648 C24.2801836,13.0035391 24.0653594,12.7065039 23.9006055,12.3898789 L27.2625547,11.2688086 C27.4124336,11.2188047 27.5346875,11.1085039 27.5997656,10.9644688 C27.6648438,10.8203672 27.6667031,10.6557461 27.6050781,10.51025 L26.2222344,7.24618359 C26.5006758,7.17785156 26.7892109,7.14239063 27.0832578,7.14239063 C28.0418984,7.14232422 28.9431641,7.51566016 29.6210391,8.19353516 Z M23.7441523,14.0703555 C24.6361211,14.9622578 25.8219375,15.4534648 27.0832578,15.4534648 C28.3445781,15.4534648 29.5305273,14.9622578 30.4223633,14.0703555 C32.2636094,12.2291094 32.2636094,9.23325781 30.4223633,7.39214453 C29.5305273,6.50017578 28.3445781,6.00903516 27.0832578,6.00903516 C25.8219375,6.00903516 24.6360547,6.50017578 23.7441523,7.39214453 C21.9030391,9.23332422 21.9030391,12.2291758 23.7441523,14.0703555 L23.7441523,14.0703555 Z" id="Fill-22" fill="#FFFFFF"></path>
                <path d="M3.589125,22.5167656 L4.49576953,22.5167656 L4.49576953,21.2440898 L3.589125,21.2440898 L3.589125,22.5167656 Z M5.06248047,20.1108672 L3.02248047,20.1108672 C2.70950781,20.1108672 2.45576953,20.3645391 2.45576953,20.6775117 L2.45576953,23.083543 C2.45576953,23.3964492 2.70950781,23.6501875 3.02248047,23.6501875 L5.06248047,23.6501875 C5.37538672,23.6501875 5.629125,23.3964492 5.629125,23.083543 L5.629125,20.6775117 C5.629125,20.3645391 5.37545313,20.1108672 5.06248047,20.1108672 L5.06248047,20.1108672 Z" id="Fill-23" fill="#FFFFFF"></path>
                <path d="M7.33224609,22.5167656 L8.23889063,22.5167656 L8.23889063,19.7856758 L7.33224609,19.7856758 L7.33224609,22.5167656 Z M6.76553516,18.6523203 C6.45262891,18.6523203 6.19889063,18.9060586 6.19889063,19.2189648 L6.19889063,23.0834102 C6.19889063,23.3963828 6.45262891,23.6501211 6.76553516,23.6501211 L8.80553516,23.6501211 C9.11850781,23.6501211 9.37224609,23.3963828 9.37224609,23.0834102 L9.37224609,19.2189648 C9.37224609,18.9060586 9.11850781,18.6523203 8.80553516,18.6523203 L6.76553516,18.6523203 L6.76553516,18.6523203 Z" id="Fill-24" fill="#FFFFFF"></path>
                <path d="M11.0753008,22.5167656 L11.9819453,22.5167656 L11.9819453,18.0120977 L11.0753008,18.0120977 L11.0753008,22.5167656 Z M10.5086562,23.6501211 L12.5486563,23.6501211 C12.8616289,23.6501211 13.1153008,23.3963828 13.1153008,23.0834102 L13.1153008,17.4453867 C13.1153008,17.1324805 12.8616289,16.8787422 12.5486563,16.8787422 L10.5086562,16.8787422 C10.1956836,16.8787422 9.94194531,17.1324805 9.94194531,17.4453867 L9.94194531,23.0834102 C9.94194531,23.3964492 10.1956836,23.6501211 10.5086562,23.6501211 L10.5086562,23.6501211 Z" id="Fill-25" fill="#FFFFFF"></path>
                <path d="M20.7779844,13.4501211 L12.6179844,13.4501211 C12.3050781,13.4501211 12.0513398,13.703793 12.0513398,14.0167656 C12.0513398,14.3297383 12.3050781,14.5834102 12.6179844,14.5834102 L20.7779844,14.5834102 C21.090957,14.5834102 21.3446953,14.3297383 21.3446953,14.0167656 C21.3446953,13.703793 21.0910234,13.4501211 20.7779844,13.4501211" id="Fill-26" fill="#FFFFFF"></path>
            </g>
        </g>
    </g>
</svg>