<?xml version="1.0" encoding="UTF-8"?>
<svg width="60px" height="60px" viewBox="0 0 60 60" version="1.1" xmlns="http://www.w3.org/2000/svg" xmlns:xlink="http://www.w3.org/1999/xlink">
    <!-- Generator: Sketch 47.1 (45422) - http://www.bohemiancoding.com/sketch -->
    <title>3content_unselected</title>
    <desc>Created with Sketch.</desc>
    <defs>
        <circle id="path-1" cx="30" cy="30" r="30"></circle>
    </defs>
    <g id="2017-10-16" stroke="none" stroke-width="1" fill="none" fill-rule="evenodd">
        <g id="3content_unselected">
            <g id="Oval-4">
                <use fill="#FFFFFF" fill-rule="evenodd" xlink:href="#path-1"></use>
                <circle stroke="#B3B9BE" stroke-width="4" cx="30" cy="30" r="28"></circle>
            </g>
            <g id="web-design" transform="translate(18.000000, 15.000000)">
                <polygon id="Fill-1" fill="#3A4751" points="12.9497461 29.4604102 23.3092383 29.4604102 23.3092383 12.9963281 12.9497461 12.9963281"></polygon>
                <polygon id="Fill-2" fill="#3A4751" points="12.9497461 10.8990234 23.3092383 10.8990234 23.3092383 0.53953125 12.9497461 0.53953125"></polygon>
                <path d="M9.30222656,22.5024609 C9.30222656,21.6052734 8.57560547,20.8786523 7.67841797,20.8786523 C6.78199219,20.8786523 6.05460938,21.6052734 6.05460938,22.5024609 C6.05460938,23.3988867 6.78199219,24.1262695 7.67841797,24.1262695 C8.57560547,24.1262695 9.30222656,23.3988867 9.30222656,22.5024609 Z M10.8994336,19.1008594 L10.8994336,29.4603516 L10.1893359,29.4603516 L6.79347656,25.7234766 L5.41646484,27.2386523 L2.69332031,24.2435156 L0.539238281,26.613457 L0.539238281,19.1008594 L10.8994336,19.1008594 L10.8994336,19.1008594 Z" id="Fill-3" fill="#3A4751"></path>
                <polygon id="Fill-4" fill="#3A4751" points="0.539238281 17.0043164 10.8994336 17.0043164 10.8994336 0.53953125 0.539238281 0.53953125"></polygon>
                <polyline id="Fill-5" fill="#3A4751" points="6.79347656 25.7234766 10.1893359 29.4603516 7.43595703 29.4603516 5.41646484 27.2386523 6.79347656 25.7234766"></polyline>
                <path d="M7.67841797,20.8786523 C8.57560547,20.8786523 9.30222656,21.6052734 9.30222656,22.5024609 C9.30222656,23.3988867 8.57560547,24.1262695 7.67841797,24.1262695 C6.78199219,24.1262695 6.05460938,23.3988867 6.05460938,22.5024609 C6.05460938,21.6052734 6.78199219,20.8786523 7.67841797,20.8786523" id="Fill-6" fill="#3A4751"></path>
                <polyline id="Fill-7" fill="#3A4751" points="5.41646484 27.2386523 7.43595703 29.4603516 0.539238281 29.4603516 0.539238281 26.613457 2.69332031 24.2435156 5.41646484 27.2386523"></polyline>
                <path d="M1.07917969,16.464375 L10.3596094,16.464375 L10.3596094,1.07917969 L1.07917969,1.07917969 L1.07917969,16.464375 Z M10.8991992,0 L0.539589844,0 C0.241523438,0 0,0.241582031 0,0.539589844 L0,17.0039648 C0,17.3019727 0.241523438,17.5435547 0.539589844,17.5435547 L10.8992578,17.5435547 C11.1973242,17.5435547 11.4388477,17.3019727 11.4388477,17.0039648 L11.4388477,0.539589844 C11.4388477,0.241582031 11.1973242,0 10.8991992,0 L10.8991992,0 Z" id="Fill-8" fill="#FFFFFF"></path>
                <path d="M1.07917969,26.8218164 L2.69349609,25.0457227 L6.21632813,28.9208203 L1.07917969,28.9208203 L1.07917969,26.8218164 Z M8.97005859,28.9208203 L7.67484375,28.9208203 L6.14560547,27.2387695 L6.79365234,26.5258008 L8.97005859,28.9208203 Z M10.3596094,19.6402734 L10.3596094,28.8451758 L7.19302734,25.3605469 C7.09072266,25.2480469 6.94564453,25.1838867 6.79365234,25.1838867 C6.64160156,25.1838867 6.49658203,25.2480469 6.39433594,25.3605469 L5.41634766,26.4366211 L3.09257813,23.8805859 C2.99033203,23.7681445 2.8453125,23.7039258 2.69326172,23.7039258 C2.54132813,23.7039258 2.39630859,23.7681445 2.2940625,23.8806445 L1.0790625,25.2174023 L1.0790625,19.6402734 L10.3596094,19.6402734 Z M10.8991992,18.5610938 L0.539589844,18.5610938 C0.241523438,18.5610938 0,18.8026758 0,19.1006836 L0,29.4604102 C0,29.758418 0.241523438,30 0.539589844,30 L10.8992578,30 C11.1973242,30 11.4388477,29.758418 11.4388477,29.4604102 L11.4388477,19.1006836 C11.4388477,18.8026758 11.1973242,18.5610938 10.8991992,18.5610938 L10.8991992,18.5610938 Z" id="Fill-9" fill="#FFFFFF"></path>
                <path d="M13.4892188,28.9208203 L22.7696484,28.9208203 L22.7696484,13.535625 L13.4892188,13.535625 L13.4892188,28.9208203 Z M23.3092383,12.4564453 L12.9496289,12.4564453 C12.6515625,12.4564453 12.4100391,12.6980273 12.4100391,12.9960352 L12.4100391,29.4604102 C12.4100391,29.758418 12.6515625,30 12.9496289,30 L23.3092383,30 C23.6073047,30 23.8488281,29.758418 23.8488281,29.4604102 L23.8488281,12.9960352 C23.8488281,12.6980273 23.6073047,12.4564453 23.3092383,12.4564453 L23.3092383,12.4564453 Z" id="Fill-10" fill="#FFFFFF"></path>
                <path d="M13.4892188,10.3597266 L22.7696484,10.3597266 L22.7696484,1.07917969 L13.4892188,1.07917969 L13.4892188,10.3597266 Z M23.3092383,0 L12.9496289,0 C12.6515625,0 12.4100391,0.241582031 12.4100391,0.539589844 L12.4100391,10.8993164 C12.4100391,11.1973242 12.6515625,11.4389063 12.9496289,11.4389063 L23.3092383,11.4389063 C23.6073047,11.4389063 23.8488281,11.1973242 23.8488281,10.8993164 L23.8488281,0.539589844 C23.8488281,0.241582031 23.6073047,0 23.3092383,0 L23.3092383,0 Z" id="Fill-11" fill="#FFFFFF"></path>
                <path d="M15.4855664,4.85613281 C15.7836328,4.85613281 16.0251562,4.61455078 16.0251562,4.31654297 L16.0251562,3.56115234 L17.5898438,3.56115234 L17.5898438,7.98556641 L17.0503125,7.98556641 C16.7522461,7.98556641 16.5107227,8.22714844 16.5107227,8.52515625 C16.5107227,8.82316406 16.7522461,9.06474609 17.0503125,9.06474609 L19.2085547,9.06474609 C19.5066211,9.06474609 19.7481445,8.82316406 19.7481445,8.52515625 C19.7481445,8.22714844 19.5066211,7.98556641 19.2085547,7.98556641 L18.6690234,7.98556641 L18.6690234,3.56115234 L20.2337109,3.56115234 L20.2337109,4.31654297 C20.2337109,4.61455078 20.4752344,4.85613281 20.7733008,4.85613281 C21.0713672,4.85613281 21.3128906,4.61455078 21.3128906,4.31654297 L21.3128906,3.0215625 C21.3128906,2.72355469 21.0713672,2.48197266 20.7733008,2.48197266 L15.4855664,2.48197266 C15.1875,2.48197266 14.9459766,2.72355469 14.9459766,3.0215625 L14.9459766,4.31654297 C14.9459766,4.61455078 15.1875586,4.85613281 15.4855664,4.85613281" id="Fill-12" fill="#FFFFFF"></path>
                <path d="M7.67847656,21.4180664 C8.27636719,21.4180664 8.76269531,21.9045117 8.76269531,22.5022852 C8.76269531,23.1001172 8.27630859,23.5865039 7.67847656,23.5865039 C7.08070313,23.5865039 6.59425781,23.1001172 6.59425781,22.5022852 C6.59425781,21.9045117 7.08064453,21.4180664 7.67847656,21.4180664 Z M7.67847656,24.6658008 C8.87144531,24.6658008 9.84193359,23.6953125 9.84193359,22.5024023 C9.84193359,21.3094336 8.87144531,20.3389453 7.67847656,20.3389453 C6.48556641,20.3389453 5.51507813,21.3094336 5.51507813,22.5024023 C5.51507813,23.6953125 6.48556641,24.6658008 7.67847656,24.6658008 L7.67847656,24.6658008 Z" id="Fill-13" fill="#FFFFFF"></path>
                <path d="M4.64027344,3.47126953 L8.52515625,3.47126953 C8.82322266,3.47126953 9.06474609,3.22962891 9.06474609,2.93167969 C9.06474609,2.63367187 8.82322266,2.39203125 8.52515625,2.39203125 L4.64027344,2.39203125 C4.34220703,2.39203125 4.10068359,2.63367187 4.10068359,2.93167969 C4.10068359,3.22962891 4.34220703,3.47126953 4.64027344,3.47126953" id="Fill-14" fill="#FFFFFF"></path>
                <path d="M2.91369141,5.80734375 L8.52515625,5.80734375 C8.82322266,5.80734375 9.06474609,5.56570313 9.06474609,5.26775391 C9.06474609,4.96974609 8.82322266,4.72816406 8.52515625,4.72816406 L2.91369141,4.72816406 C2.615625,4.72816406 2.37410156,4.96974609 2.37410156,5.26775391 C2.37410156,5.56570313 2.615625,5.80734375 2.91369141,5.80734375" id="Fill-15" fill="#FFFFFF"></path>
                <path d="M2.91369141,8.14335938 L8.52515625,8.14335938 C8.82322266,8.14335938 9.06474609,7.90171875 9.06474609,7.60376953 C9.06474609,7.30576172 8.82322266,7.06417969 8.52515625,7.06417969 L2.91369141,7.06417969 C2.615625,7.06417969 2.37410156,7.30576172 2.37410156,7.60376953 C2.37410156,7.90171875 2.615625,8.14335938 2.91369141,8.14335938" id="Fill-16" fill="#FFFFFF"></path>
                <path d="M2.91369141,10.4794336 L8.52515625,10.4794336 C8.82322266,10.4794336 9.06474609,10.2378516 9.06474609,9.93984375 C9.06474609,9.64183594 8.82322266,9.40025391 8.52515625,9.40025391 L2.91369141,9.40025391 C2.615625,9.40025391 2.37410156,9.64183594 2.37410156,9.93984375 C2.37410156,10.2378516 2.615625,10.4794336 2.91369141,10.4794336" id="Fill-17" fill="#FFFFFF"></path>
                <path d="M2.91369141,12.8154492 L8.52515625,12.8154492 C8.82322266,12.8154492 9.06474609,12.5738672 9.06474609,12.2758594 C9.06474609,11.9778516 8.82322266,11.7362695 8.52515625,11.7362695 L2.91369141,11.7362695 C2.615625,11.7362695 2.37410156,11.9778516 2.37410156,12.2758594 C2.37410156,12.5738672 2.615625,12.8154492 2.91369141,12.8154492" id="Fill-18" fill="#FFFFFF"></path>
                <path d="M2.91369141,15.1515234 L5.28773438,15.1515234 C5.58580078,15.1515234 5.82732422,14.9099414 5.82732422,14.6119336 C5.82732422,14.3139258 5.58580078,14.0723437 5.28773438,14.0723437 L2.91369141,14.0723437 C2.615625,14.0723437 2.37410156,14.3139258 2.37410156,14.6119336 C2.37410156,14.9099414 2.615625,15.1515234 2.91369141,15.1515234" id="Fill-19" fill="#FFFFFF"></path>
                <path d="M17.0503125,15.9276563 L20.9351953,15.9276563 C21.2332617,15.9276563 21.4747852,15.6860742 21.4747852,15.3880664 C21.4747852,15.0900586 21.2332617,14.8484766 20.9351953,14.8484766 L17.0503125,14.8484766 C16.7522461,14.8484766 16.5107227,15.0900586 16.5107227,15.3880664 C16.5107227,15.6860742 16.7523047,15.9276563 17.0503125,15.9276563" id="Fill-20" fill="#FFFFFF"></path>
                <path d="M15.3236719,18.2637305 L20.9351953,18.2637305 C21.2332617,18.2637305 21.4747852,18.0221484 21.4747852,17.7241406 C21.4747852,17.4261328 21.2332617,17.1845508 20.9351953,17.1845508 L15.3236719,17.1845508 C15.0256055,17.1845508 14.784082,17.4261328 14.784082,17.7241406 C14.784082,18.0221484 15.0256641,18.2637305 15.3236719,18.2637305" id="Fill-21" fill="#FFFFFF"></path>
                <path d="M15.3236719,20.5997461 L20.9351953,20.5997461 C21.2332617,20.5997461 21.4747852,20.3581641 21.4747852,20.0601562 C21.4747852,19.7621484 21.2332617,19.5205664 20.9351953,19.5205664 L15.3236719,19.5205664 C15.0256055,19.5205664 14.784082,19.7621484 14.784082,20.0601562 C14.784082,20.3581641 15.0256641,20.5997461 15.3236719,20.5997461" id="Fill-22" fill="#FFFFFF"></path>
                <path d="M15.3236719,22.9357617 L20.9351953,22.9357617 C21.2332617,22.9357617 21.4747852,22.6941797 21.4747852,22.3961719 C21.4747852,22.0981641 21.2332617,21.856582 20.9351953,21.856582 L15.3236719,21.856582 C15.0256055,21.856582 14.784082,22.0981641 14.784082,22.3961719 C14.784082,22.6941797 15.0256641,22.9357617 15.3236719,22.9357617" id="Fill-23" fill="#FFFFFF"></path>
                <path d="M15.3236719,25.2718359 L20.9351953,25.2718359 C21.2332617,25.2718359 21.4747852,25.0302539 21.4747852,24.7322461 C21.4747852,24.4342383 21.2332617,24.1926562 20.9351953,24.1926562 L15.3236719,24.1926562 C15.0256055,24.1926562 14.784082,24.4342383 14.784082,24.7322461 C14.784082,25.0302539 15.0256641,25.2718359 15.3236719,25.2718359" id="Fill-24" fill="#FFFFFF"></path>
                <g id="Group-28" transform="translate(14.765625, 26.400000)" fill="#FFFFFF">
                    <path d="M0.558046875,1.20785156 L2.93214844,1.20785156 C3.23021484,1.20785156 3.47173828,0.966269531 3.47173828,0.668261719 C3.47173828,0.370253906 3.23021484,0.128671875 2.93214844,0.128671875 L0.558046875,0.128671875 C0.259980469,0.128671875 0.0184570312,0.370253906 0.0184570312,0.668261719 C0.0184570312,0.966269531 0.260039062,1.20785156 0.558046875,1.20785156" id="Fill-25"></path>
                </g>
            </g>
        </g>
    </g>
</svg>