<?xml version="1.0" encoding="UTF-8"?>
<svg width="18px" height="14px" viewBox="0 0 18 14" version="1.1" xmlns="http://www.w3.org/2000/svg" xmlns:xlink="http://www.w3.org/1999/xlink">
    <!-- Generator: sketchtool 54.1 (76490) - https://sketchapp.com -->
    <title>23D93EB6-C81A-4E95-BE08-E32B8090285A</title>
    <desc>Created with sketchtool.</desc>
    <g id="DeskTop" stroke="none" stroke-width="1" fill="none" fill-rule="evenodd">
        <g id="DT-1.0" transform="translate(-825.000000, -3449.000000)" fill="#35A100" fill-rule="nonzero">
            <g id="2019-Footer" transform="translate(0.000000, 3193.000000)">
                <path d="M843,259.888889 L843,268.304216 C843,269.236897 842.276786,270 841.392857,270 L826.607143,270 C825.723214,270 825,269.236897 825,268.304216 L825,259.888889 C825.301339,260.238644 825.642857,260.546005 826.014509,260.810971 C827.68192,262.008619 829.36942,263.206266 831.006696,264.467505 C831.850446,265.124621 832.895089,265.930119 833.989955,265.930119 L834.010045,265.930119 C835.104911,265.930119 836.149554,265.124621 836.993304,264.467505 C838.63058,263.216865 840.31808,262.008619 841.995536,260.810971 C842.357143,260.546005 842.698661,260.238644 843,259.888889 Z M843,257.527778 C843,258.597222 842.166295,259.561632 841.282366,260.144097 C839.715402,261.175347 838.138393,262.206597 836.581473,263.247396 C835.928571,263.677083 834.823661,264.555556 834.010045,264.555556 L833.989955,264.555556 C833.176339,264.555556 832.071429,263.677083 831.418527,263.247396 C829.861607,262.206597 828.284598,261.175347 826.727679,260.144097 C826.014509,259.685764 825,258.606771 825,257.737847 C825,256.802083 825.532366,256 826.607143,256 L841.392857,256 C842.266741,256 843,256.6875 843,257.527778 Z" id="EnvelopeIcon"></path>
            </g>
        </g>
    </g>
</svg>