<svg xmlns="http://www.w3.org/2000/svg" viewBox="0 0 68.38 68.543"><defs><style>.a{fill:#0047bb;}.b{fill:#b2d3a6;}.b,.c{opacity:0.7;}.c{fill:#9bc9ee;}.d{fill:#32cd32;}</style></defs><path class="a" d="M43.687,67.616l.1-22.434A5.5,5.5,0,0,0,42.4,41.46L25.3,27.4l.1,22.537a4.3,4.3,0,0,0,1.491,3.722Z" transform="translate(-0.154 0.927)"/><path class="b" d="M26.8,25.77,47.771,20.7a4.794,4.794,0,0,1,3.777.62l17,14.06L47.473,40.347a4.17,4.17,0,0,1-3.876-.62Z" transform="translate(-0.164 0.696)"/><path class="c" d="M0,31.67,20.971,26.6a4.794,4.794,0,0,1,3.777.62l17,13.957L20.673,46.143a4.17,4.17,0,0,1-3.876-.62Z" transform="translate(0 0.896)"/><path class="d" d="M43.387,40.216l.1-22.434A5.5,5.5,0,0,0,42.1,14.06L25,0l.1,22.537a4.3,4.3,0,0,0,1.491,3.722Z" transform="translate(-0.153)"/></svg>