<?xml version="1.0" encoding="UTF-8"?>
<svg width="14px" height="14px" viewBox="0 0 14 14" version="1.1" xmlns="http://www.w3.org/2000/svg" xmlns:xlink="http://www.w3.org/1999/xlink">
    <!-- Generator: Sketch 47.1 (45422) - http://www.bohemiancoding.com/sketch -->
    <title>info</title>
    <desc>Created with Sketch.</desc>
    <defs></defs>
    <g id="2017-10-16" stroke="none" stroke-width="1" fill="none" fill-rule="evenodd">
        <g id="FC025_Report_page_desktop_FINAL" transform="translate(-1046.000000, -243.000000)" fill="#3A4751">
            <g id="Group" transform="translate(134.000000, 181.000000)">
                <g id="Group-5" transform="translate(795.000000, 58.000000)">
                    <g id="info" transform="translate(117.000000, 4.000000)">
                        <path d="M6.6143,-8.8817842e-16 C2.9617,-8.8817842e-16 0,3.02214286 0,6.74928571 C0,10.4771429 2.9617,13.5021429 6.6143,13.5021429 C10.2676,13.5021429 13.2321,10.4771429 13.2321,6.74928571 C13.2321,3.02214286 10.2676,-8.8817842e-16 6.6143,-8.8817842e-16 Z M7.9926,10.4635714 C7.651,10.6 7.3801,10.7035714 7.1778,10.7757143 C6.9755,10.8485714 6.7403,10.885 6.4722,10.885 C6.0592,10.885 5.7372,10.7814286 5.5097,10.575 C5.2801,10.3714286 5.1681,10.1092857 5.1681,9.79357143 C5.1681,9.67071429 5.1765,9.54571429 5.1926,9.41714286 C5.2094,9.28857143 5.2367,9.14642857 5.2745,8.98428571 L5.7015,7.44714286 C5.7393,7.29928571 5.7722,7.16 5.7967,7.03142857 C5.8219,6.89714286 5.8352,6.77785714 5.8352,6.66857143 C5.8352,6.47357143 5.7946,6.33642857 5.7148,6.25857143 C5.6357,6.18071429 5.4852,6.14428571 5.2612,6.14428571 C5.152,6.14428571 5.0372,6.16071429 4.9217,6.19428571 C4.8069,6.23071429 4.7089,6.26428571 4.627,6.295 L4.739,5.82357143 C5.0176,5.70642857 5.2857,5.60857143 5.5398,5.525 C5.7946,5.44071429 6.0347,5.39928571 6.2622,5.39928571 C6.6717,5.39928571 6.9867,5.50214286 7.2079,5.70357143 C7.4291,5.90428571 7.5418,6.16642857 7.5418,6.49 C7.5418,6.55714286 7.5334,6.67428571 7.5194,6.84142857 C7.5033,7.01214286 7.476,7.165 7.4347,7.305 L7.0112,8.83642857 C6.9755,8.95928571 6.9454,9.10142857 6.9153,9.25785714 C6.888,9.41428571 6.8747,9.53428571 6.8747,9.615 C6.8747,9.81857143 6.9209,9.95857143 7.0084,10.0307143 C7.0987,10.1064286 7.252,10.1421429 7.4732,10.1421429 C7.5768,10.1421429 7.6923,10.1228571 7.8232,10.0864286 C7.952,10.0507143 8.0472,10.0171429 8.1074,9.98928571 L7.9926,10.4635714 Z M7.9191,4.24714286 C7.7196,4.43357143 7.4816,4.52857143 7.2023,4.52857143 C6.9265,4.52857143 6.6857,4.43357143 6.4862,4.24714286 C6.2895,4.06 6.188,3.83142857 6.188,3.56357143 C6.188,3.29785714 6.2895,3.06928571 6.4862,2.87928571 C6.6857,2.69285714 6.9265,2.59785714 7.2023,2.59785714 C7.4816,2.59785714 7.7196,2.69285714 7.9191,2.87928571 C8.1158,3.06928571 8.2145,3.29785714 8.2145,3.56357143 C8.2145,3.83142857 8.1158,4.06 7.9191,4.24714286 Z" id="icon"></path>
                    </g>
                </g>
            </g>
        </g>
    </g>
</svg>