<?xml version="1.0" encoding="UTF-8"?>
<svg width="18px" height="18px" viewBox="0 0 18 18" version="1.1" xmlns="http://www.w3.org/2000/svg" xmlns:xlink="http://www.w3.org/1999/xlink">
    <!-- Generator: sketchtool 54.1 (76490) - https://sketchapp.com -->
    <title>753DE1E4-0956-43BC-8E9F-740052058E8D</title>
    <desc>Created with sketchtool.</desc>
    <g id="DeskTop" stroke="none" stroke-width="1" fill="none" fill-rule="evenodd">
        <g id="DT-1.0" transform="translate(-825.000000, -3416.000000)" fill="#35A100" fill-rule="nonzero">
            <g id="2019-Footer" transform="translate(0.000000, 3193.000000)">
                <path d="M843,237.215909 C843,237.676136 842.795455,238.571023 842.603693,238.992898 C842.335227,239.619318 841.619318,240.028409 841.044034,240.348011 C840.289773,240.757102 839.522727,241 838.666193,241 C837.477273,241 836.403409,240.514205 835.316761,240.117898 C834.536932,239.836648 833.78267,239.491477 833.079545,239.056818 C830.90625,237.714489 828.285511,235.09375 826.943182,232.920455 C826.508523,232.21733 826.163352,231.463068 825.882102,230.683239 C825.485795,229.596591 825,228.522727 825,227.333807 C825,226.477273 825.242898,225.710227 825.651989,224.955966 C825.971591,224.380682 826.380682,223.664773 827.007102,223.396307 C827.428977,223.204545 828.323864,223 828.784091,223 C828.87358,223 828.963068,223 829.052557,223.038352 C829.321023,223.127841 829.602273,223.754261 829.730114,224.009943 C830.139205,224.738636 830.535511,225.480114 830.957386,226.196023 C831.161932,226.528409 831.545455,226.9375 831.545455,227.333807 C831.545455,228.113636 829.231534,229.25142 829.231534,229.941761 C829.231534,230.286932 829.551136,230.734375 829.730114,231.041193 C831.021307,233.367898 832.632102,234.978693 834.958807,236.269886 C835.265625,236.448864 835.713068,236.768466 836.058239,236.768466 C836.74858,236.768466 837.886364,234.454545 838.666193,234.454545 C839.0625,234.454545 839.471591,234.838068 839.803977,235.042614 C840.519886,235.464489 841.261364,235.860795 841.990057,236.269886 C842.245739,236.397727 842.872159,236.678977 842.961648,236.947443 C843,237.036932 843,237.12642 843,237.215909 Z" id="PhoneIcon"></path>
            </g>
        </g>
    </g>
</svg>