<svg width="133" height="18" viewBox="0 0 133 18" fill="none" xmlns="http://www.w3.org/2000/svg">
<path d="M26.1023 2.70581H26.3581V5.81548H30.3563V8.14436H26.3447V13.5425C26.3447 14.0675 26.5062 14.4983 26.8158 14.8214C27.1389 15.1445 27.5697 15.306 28.1216 15.306C28.8351 15.306 29.6697 15.0502 30.5986 14.5252V16.9887C29.4812 17.4868 28.4447 17.7291 27.462 17.7291C26.1427 17.7291 25.1196 17.3657 24.3792 16.6522C23.6388 15.9387 23.2754 14.956 23.2754 13.731V8.1309H21.4446V7.63281L26.1023 2.70581Z" fill="#0047BB"/>
<path d="M37.6256 5.58662C39.3487 5.58662 40.7083 6.13856 41.7045 7.24242C42.7007 8.34628 43.2122 9.86746 43.2122 11.8194V12.2771H34.9332C35.0544 13.3271 35.4448 14.1214 36.1044 14.6868C36.764 15.2522 37.666 15.5349 38.8102 15.5349C39.5506 15.5349 40.2506 15.4137 40.9372 15.1579C41.6237 14.9022 42.3237 14.5118 43.0507 14.0002V16.2887C41.6776 17.258 40.0218 17.7426 38.0698 17.7426C36.2255 17.7426 34.7178 17.1907 33.5467 16.0733C32.3755 14.9695 31.7966 13.4887 31.7966 11.6444C31.7966 9.86746 32.3351 8.41359 33.412 7.2828C34.4755 6.15202 35.889 5.58662 37.6256 5.58662ZM40.3179 10.4059C40.2372 9.55784 39.9814 8.88475 39.5371 8.41359C39.1064 7.92897 38.5006 7.70012 37.7467 7.70012C36.9659 7.70012 36.3467 7.92897 35.8755 8.38667C35.4044 8.84437 35.1082 9.51746 34.9736 10.4194H40.3179V10.4059Z" fill="#0047BB"/>
<path d="M51.1681 5.58662C52.5277 5.58662 53.7662 5.85586 54.8566 6.38087V8.99245C53.7662 8.35975 52.7297 8.03666 51.747 8.03666C50.6969 8.03666 49.8354 8.35974 49.1623 9.01937C48.4892 9.679 48.1661 10.5675 48.1661 11.6848C48.1661 12.7752 48.5027 13.6637 49.1758 14.3233C49.8488 14.9964 50.7373 15.3195 51.8681 15.3195C52.7027 15.3195 53.7662 15.0502 55.072 14.4983V16.9887C53.8604 17.4868 52.6085 17.7291 51.3296 17.7291C49.4315 17.7291 47.8969 17.1907 46.7123 16.1003C45.5276 15.0099 44.9353 13.5694 44.9353 11.779C44.9353 9.92131 45.5142 8.41359 46.6719 7.2828C47.8296 6.15202 49.3238 5.58662 51.1681 5.58662Z" fill="#0047BB"/>
<path d="M60.7394 0.0134605V7.45781H60.8202C61.8164 6.21933 63.0145 5.58663 64.4145 5.58663C65.653 5.58663 66.6626 5.99048 67.4165 6.81165C68.1703 7.63281 68.5607 8.69629 68.5607 10.0155V17.5003H65.4914V10.5944C65.4914 9.81362 65.303 9.18092 64.9395 8.72322C64.5626 8.26552 64.0645 8.0232 63.4183 8.0232C62.9472 8.0232 62.5164 8.15782 62.0991 8.42706C61.6818 8.69629 61.2375 9.14053 60.7529 9.75977V17.5003H57.6702V0H60.7394V0.0134605Z" fill="#0047BB"/>
<path d="M78.3206 5.58662C79.5725 5.58662 80.5687 6.00394 81.3225 6.82511C82.0764 7.64627 82.4399 8.73667 82.4399 10.0694V17.5137H79.3706V10.3925C79.3706 9.63861 79.1821 9.03283 78.8321 8.5886C78.4687 8.14436 77.9706 7.92897 77.3513 7.92897C76.8802 7.92897 76.4225 8.06359 76.0052 8.34628C75.5878 8.62898 75.1301 9.08668 74.6321 9.74631V17.5272H71.5493V5.81547H74.6321V7.45781C75.1975 6.78472 75.7763 6.31356 76.3821 6.0174C76.9609 5.72124 77.6071 5.58662 78.3206 5.58662Z" fill="#32CD32"/>
<path d="M89.9649 5.58662C91.4727 5.58662 92.6169 5.90971 93.4112 6.54241C94.2054 7.17511 94.5958 8.07705 94.5958 9.2213V14.9425C94.5958 15.3868 94.7708 15.6022 95.1343 15.6022C95.2823 15.6022 95.4977 15.5349 95.767 15.4137C96.0362 15.2791 96.265 15.131 96.4535 14.9695V16.7464C95.3766 17.406 94.3939 17.7426 93.4919 17.7426C92.94 17.7426 92.5227 17.6484 92.2265 17.4734C91.9304 17.2849 91.7284 16.9618 91.6073 16.4906C90.4361 17.3253 89.2515 17.7426 88.0668 17.7426C87.2187 17.7426 86.5053 17.4599 85.8995 16.8945C85.2937 16.3291 84.9976 15.6426 84.9976 14.8483C84.9976 13.8387 85.2937 13.0444 85.8995 12.4521C86.5053 11.8733 87.5553 11.3617 89.0495 10.9175L91.54 10.1905V9.65207C91.54 8.50782 90.84 7.94243 89.4669 7.94243C88.7534 7.94243 88.0534 8.10397 87.3534 8.42705C86.6534 8.75014 86.0072 9.23476 85.4418 9.86746V7.09434C86.6937 6.08471 88.2015 5.58662 89.9649 5.58662ZM88.0803 14.3772C88.0803 14.8079 88.2149 15.1445 88.4841 15.4002C88.7534 15.656 89.0899 15.7906 89.4938 15.7906C90.1669 15.7906 90.8534 15.481 91.5265 14.8618V11.779C90.665 12.0752 89.9919 12.3444 89.5072 12.6002C89.0226 12.856 88.6592 13.1252 88.4303 13.3944C88.188 13.6637 88.0803 13.9868 88.0803 14.3772Z" fill="#32CD32"/>
<path d="M99.9534 5.81548L102.753 12.5867L105.5 5.81548H108.784L103.494 17.7426H102L96.6418 5.81548H99.9534Z" fill="#32CD32"/>
<path d="M112.217 0.403854C112.688 0.403854 113.106 0.578858 113.442 0.915401C113.779 1.25195 113.954 1.66926 113.954 2.14042C113.954 2.59812 113.779 3.00197 113.442 3.36544C113.106 3.71545 112.688 3.90391 112.204 3.90391C111.732 3.90391 111.329 3.72891 110.979 3.36544C110.629 3.01543 110.454 2.59812 110.454 2.14042C110.454 1.6558 110.629 1.23848 110.979 0.901939C111.356 0.565395 111.759 0.403854 112.217 0.403854ZM113.765 5.81548V17.5137H110.682V5.81548H113.765Z" fill="#32CD32"/>
<path d="M122.744 5.58662C123.969 5.58662 125.073 5.8424 126.069 6.35394C127.065 6.86549 127.833 7.57896 128.371 8.49436C128.91 9.40976 129.179 10.4463 129.179 11.6175C129.179 12.829 128.923 13.8925 128.398 14.7945C127.873 15.7099 127.106 16.4233 126.096 16.9483C125.087 17.4734 123.969 17.7426 122.744 17.7426C121.519 17.7426 120.402 17.4734 119.406 16.9483C118.41 16.4233 117.642 15.7099 117.117 14.7945C116.592 13.8791 116.336 12.829 116.336 11.6175C116.336 10.4463 116.606 9.3963 117.158 8.4809C117.71 7.5655 118.477 6.85203 119.46 6.35394C120.442 5.8424 121.546 5.58662 122.744 5.58662ZM119.567 11.604C119.567 12.7752 119.85 13.7041 120.429 14.4041C120.994 15.1041 121.762 15.4541 122.731 15.4541C123.727 15.4541 124.521 15.1175 125.1 14.4579C125.679 13.7848 125.962 12.829 125.962 11.5906C125.962 10.4059 125.665 9.49053 125.087 8.84437C124.508 8.1982 123.713 7.87512 122.731 7.87512C121.802 7.87512 121.035 8.21167 120.456 8.89821C119.85 9.5713 119.567 10.4867 119.567 11.604Z" fill="#32CD32"/>
<path d="M0.0807705 5.78856C0.0269235 5.53278 0 5.3847 0 5.3847C0.0134618 5.51932 0.0403853 5.65394 0.0807705 5.78856Z" fill="#0252C6"/>
<path d="M12.8963 17.7426C12.7482 17.7157 12.5193 17.6753 12.2097 17.6349C12.4386 17.7426 12.6674 17.783 12.8963 17.7426Z" fill="#0252C6"/>
<path d="M2.05957 6.90588C2.08649 6.91935 2.11342 6.91935 2.14034 6.93281C2.11342 6.91935 2.08649 6.90588 2.05957 6.90588Z" fill="#0252C6"/>
<path d="M1.13083 6.62319C0.969288 6.56934 0.821209 6.50203 0.659668 6.43472C0.821209 6.50203 0.969288 6.56934 1.13083 6.62319Z" fill="#0252C6"/>
<path d="M1.41357 6.71741C1.48088 6.74433 1.54819 6.77125 1.62896 6.78472C1.54819 6.77125 1.48088 6.74433 1.41357 6.71741Z" fill="#0252C6"/>
<path d="M0.444336 6.30009C0.457798 6.31356 0.457798 6.31356 0.471259 6.32702C0.471259 6.31356 0.457798 6.30009 0.444336 6.30009Z" fill="#0252C6"/>
<path d="M1.13086 6.62318C1.22509 6.65011 1.31932 6.69049 1.41356 6.71742C1.31932 6.69049 1.22509 6.66357 1.13086 6.62318Z" fill="#0252C6"/>
<path d="M1.62891 6.78473C1.76352 6.82511 1.9116 6.8655 2.05968 6.89242C1.9116 6.8655 1.76352 6.82511 1.62891 6.78473Z" fill="#0252C6"/>
<path d="M0.471191 6.31357C0.525038 6.35395 0.592347 6.39434 0.659656 6.43473C0.592347 6.39434 0.5385 6.35395 0.471191 6.31357Z" fill="#0252C6"/>
<path d="M2.14038 6.91934C2.31538 6.95973 2.47692 7.00011 2.65193 7.02704C2.47692 7.00011 2.30192 6.95973 2.14038 6.91934Z" fill="#0252C6"/>
<path d="M0.444278 6.30011C0.269275 6.16549 0.148119 5.97702 0.0808105 5.78856C0.0808105 5.80202 0.0942723 5.82894 0.0942723 5.84241C0.161581 6.00395 0.282737 6.16549 0.444278 6.30011Z" fill="#0252C6"/>
<path d="M11.7656 17.231C11.8733 17.4195 12.0214 17.5541 12.1964 17.6349C12.2099 17.6349 12.2099 17.6349 12.2233 17.6349C12.0483 17.5407 11.8868 17.4061 11.7656 17.231Z" fill="#0252C6"/>
<path d="M1.29196 10.5944C2.20736 10.9175 2.97468 11.2136 3.95739 11.604C5.12856 12.0752 5.77472 12.7887 6.23242 13.8252C6.46127 14.3502 7.02667 15.7772 7.32283 16.6522C7.74014 17.8503 8.33246 18.0657 8.91131 17.9849C9.49017 17.8907 9.84017 17.5541 9.67863 16.5714C9.36901 14.6868 9.01901 12.4387 8.83054 11.631C8.54785 10.4463 7.87476 9.63862 6.59589 9.34246C5.93626 9.19438 3.4593 8.73668 1.64197 8.45398C0.672719 8.3059 0.14771 8.46744 0.0804017 9.19438C-0.000368809 9.90785 0.416946 10.2848 1.29196 10.5944Z" fill="#32CD32"/>
<path d="M18.0118 2.01927C18.0118 1.49426 17.7964 1.0231 17.4599 0.673092C17.4464 0.65963 17.433 0.646168 17.4195 0.632706C17.0695 0.269239 16.5714 0.04039 16.0195 0.04039C15.8445 0.04039 15.6695 0.0673135 15.5079 0.107699L0.834629 4.25392C0.282697 4.41546 0 4.88662 0 5.37124C0 5.53278 0.0269235 5.68086 0.0942323 5.82894C0.0942323 5.81548 0.0807705 5.78856 0.0807705 5.7751C0.148079 5.96356 0.269235 6.15203 0.444238 6.28664C0.4577 6.3001 0.4577 6.3001 0.471161 6.31357C0.525008 6.35395 0.592317 6.39434 0.659626 6.43472C0.807705 6.50203 0.969246 6.56934 1.13079 6.62319C1.22502 6.65011 1.31925 6.6905 1.41348 6.71742C1.48079 6.74434 1.5481 6.77127 1.62887 6.78473C1.76349 6.82511 1.91157 6.8655 2.05965 6.89242C2.08657 6.90588 2.1135 6.90588 2.14042 6.91934C2.31542 6.95973 2.47696 7.00012 2.65197 7.02704H2.66543C2.67889 7.02704 2.69235 7.02704 2.70581 7.0405C4.90008 7.47128 7.44435 7.55205 9.03284 8.89822C9.0463 8.91168 9.07322 8.92515 9.08668 8.95207C9.12707 8.97899 9.16745 9.00592 9.19438 9.0463C10.4463 10.2309 10.6886 12.7483 11.1329 15.0099C11.2675 15.7233 11.429 16.4099 11.6444 17.0157C11.6713 17.0964 11.6983 17.1637 11.7386 17.2176C11.7386 17.2176 11.7386 17.231 11.7521 17.231C11.8733 17.4195 12.0348 17.5541 12.2098 17.6484C12.1963 17.6484 12.1963 17.6484 12.1829 17.6484C12.7887 17.9714 13.6368 17.7157 13.8521 16.9349L13.906 16.7464L17.9311 2.54427C17.9849 2.36927 18.0118 2.20773 18.0118 2.01927Z" fill="#0047BB"/>
<path d="M129.098 1.72311H128.452V1.37311C129.031 1.37311 129.529 1.37311 130.121 1.37311V1.72311H129.475V3.39237H129.098V1.72311V1.72311Z" fill="#32CD32"/>
<path d="M132.114 1.9385L131.454 2.81351H131.373L130.727 1.9385V3.40583H130.35V1.38657H130.794L131.427 2.26158L132.06 1.38657H132.491V3.40583H132.114V1.9385V1.9385Z" fill="#32CD32"/>
</svg>
