<svg width="155" height="30" viewBox="0 0 155 30" fill="none" xmlns="http://www.w3.org/2000/svg">
<path d="M4.72496 9.74512H4.98443V12.8996H9.04025V15.2621H4.97077V20.7382C4.97077 21.2708 5.13464 21.7077 5.44873 22.0355C5.77647 22.3632 6.21346 22.5271 6.77336 22.5271C7.49712 22.5271 8.3438 22.2676 9.28606 21.7351V24.2341C8.15261 24.7394 7.1011 24.9852 6.10422 24.9852C4.76593 24.9852 3.72808 24.6165 2.977 23.8927C2.22592 23.1689 1.85721 22.172 1.85721 20.9294V15.2485H0V14.7432L4.72496 9.74512Z" fill="#0047BB"/>
<path d="M16.4145 12.6675C18.1625 12.6675 19.5417 13.2274 20.5523 14.3472C21.5628 15.467 22.0817 17.0101 22.0817 18.9902V19.4545H13.6833C13.8062 20.5197 14.2022 21.3254 14.8714 21.8989C15.5405 22.4725 16.4555 22.7592 17.6162 22.7592C18.3673 22.7592 19.0774 22.6363 19.7739 22.3769C20.4703 22.1174 21.1804 21.7214 21.9179 21.2025V23.524C20.5249 24.5072 18.8453 24.9988 16.8651 24.9988C14.9943 24.9988 13.4648 24.4389 12.2767 23.3055C11.0887 22.1857 10.5015 20.6835 10.5015 18.8127C10.5015 17.0101 11.0477 15.5352 12.1402 14.3881C13.219 13.241 14.6529 12.6675 16.4145 12.6675ZM19.1457 17.5563C19.0638 16.696 18.8043 16.0132 18.3536 15.5352C17.9167 15.0436 17.3021 14.8115 16.5374 14.8115C15.7454 14.8115 15.1172 15.0436 14.6392 15.5079C14.1613 15.9722 13.8608 16.655 13.7243 17.57H19.1457V17.5563Z" fill="#0047BB"/>
<path d="M30.1524 12.6675C31.5316 12.6675 32.788 12.9406 33.8941 13.4732V16.1224C32.788 15.4806 31.7365 15.1529 30.7396 15.1529C29.6744 15.1529 28.8004 15.4806 28.1176 16.1497C27.4348 16.8189 27.1071 17.7202 27.1071 18.8536C27.1071 19.9598 27.4485 20.8611 28.1313 21.5302C28.8141 22.213 29.7154 22.5407 30.8625 22.5407C31.7091 22.5407 32.788 22.2676 34.1126 21.7077V24.2341C32.8836 24.7394 31.6136 24.9852 30.3162 24.9852C28.3907 24.9852 26.834 24.4389 25.6322 23.3328C24.4305 22.2267 23.8297 20.7655 23.8297 18.9492C23.8297 17.0647 24.4169 15.5352 25.5913 14.3881C26.7657 13.241 28.2815 12.6675 30.1524 12.6675Z" fill="#0047BB"/>
<path d="M39.8617 7.01365V14.5654H39.9436C40.9542 13.3091 42.1696 12.6672 43.5898 12.6672C44.8461 12.6672 45.8703 13.0769 46.6351 13.9099C47.3998 14.7429 47.7958 15.8218 47.7958 17.16V24.7528H44.6823V17.7472C44.6823 16.9552 44.4911 16.3134 44.1224 15.8491C43.74 15.3848 43.2347 15.139 42.5792 15.139C42.1013 15.139 41.6643 15.2755 41.241 15.5486C40.8176 15.8218 40.367 16.2724 39.8754 16.9006V24.7528H36.7481V7H39.8617V7.01365Z" fill="#0047BB"/>
<path d="M57.6964 12.6675C58.9664 12.6675 59.977 13.0908 60.7417 13.9238C61.5064 14.7568 61.8752 15.863 61.8752 17.2149V24.7667H58.7616V17.5427C58.7616 16.7779 58.5704 16.1634 58.2154 15.7128C57.8466 15.2621 57.3414 15.0436 56.7132 15.0436C56.2352 15.0436 55.7709 15.1802 55.3476 15.467C54.9243 15.7537 54.46 16.218 53.9547 16.8872V24.7803H50.8275V12.8996H53.9547V14.5657C54.5283 13.8829 55.1155 13.4049 55.73 13.1045C56.3172 12.804 56.9727 12.6675 57.6964 12.6675Z" fill="#32CD32"/>
<path d="M69.5088 12.6675C71.0383 12.6675 72.1991 12.9952 73.0048 13.6371C73.8105 14.2789 74.2065 15.1938 74.2065 16.3546V22.1584C74.2065 22.609 74.384 22.8275 74.7527 22.8275C74.9029 22.8275 75.1214 22.7592 75.3946 22.6363C75.6677 22.4998 75.8998 22.3496 76.091 22.1857V23.9883C74.9985 24.6574 74.0016 24.9988 73.0867 24.9988C72.5268 24.9988 72.1035 24.9032 71.803 24.7257C71.5026 24.5345 71.2978 24.2068 71.1749 23.7288C69.9868 24.5755 68.7851 24.9988 67.5833 24.9988C66.723 24.9988 65.9992 24.712 65.3847 24.1385C64.7702 23.5649 64.4698 22.8685 64.4698 22.0628C64.4698 21.0386 64.7702 20.2329 65.3847 19.632C65.9992 19.0448 67.0644 18.5259 68.5802 18.0752L71.1066 17.3378V16.7916C71.1066 15.6308 70.3965 15.0573 69.0036 15.0573C68.2798 15.0573 67.5697 15.2211 66.8596 15.5489C66.1495 15.8766 65.494 16.3682 64.9204 17.0101V14.1969C66.1904 13.1728 67.7199 12.6675 69.5088 12.6675ZM67.597 21.5848C67.597 22.0218 67.7336 22.3632 68.0067 22.6227C68.2798 22.8821 68.6212 23.0187 69.0309 23.0187C69.7137 23.0187 70.4101 22.7046 71.0929 22.0764V18.9492C70.2189 19.2497 69.5362 19.5228 69.0445 19.7822C68.5529 20.0417 68.1842 20.3148 67.9521 20.5879C67.7063 20.8611 67.597 21.1888 67.597 21.5848Z" fill="#32CD32"/>
<path d="M79.6416 12.9009L82.4821 19.7698L85.2679 12.9009H88.5999L83.2331 25.0001H81.7173L76.2823 12.9009H79.6416Z" fill="#32CD32"/>
<path d="M92.0822 7.41016C92.5601 7.41016 92.9835 7.58768 93.3249 7.92908C93.6663 8.27048 93.8438 8.69382 93.8438 9.17178C93.8438 9.63608 93.6663 10.0458 93.3249 10.4145C92.9835 10.7695 92.5601 10.9607 92.0685 10.9607C91.5906 10.9607 91.1809 10.7832 90.8258 10.4145C90.4708 10.0594 90.2932 9.63608 90.2932 9.17178C90.2932 8.68016 90.4708 8.25683 90.8258 7.91543C91.2082 7.57403 91.6179 7.41016 92.0822 7.41016ZM93.6526 12.8999V24.7669H90.5254V12.8999H93.6526Z" fill="#32CD32"/>
<path d="M102.761 12.6675C104.004 12.6675 105.124 12.9269 106.134 13.4459C107.145 13.9648 107.923 14.6886 108.469 15.6172C109.016 16.5458 109.289 17.5973 109.289 18.7854C109.289 20.0144 109.029 21.0932 108.497 22.0082C107.964 22.9368 107.186 23.6605 106.162 24.1931C105.137 24.7257 104.004 24.9988 102.761 24.9988C101.518 24.9988 100.385 24.7257 99.3745 24.1931C98.3639 23.6605 97.5856 22.9368 97.053 22.0082C96.5204 21.0796 96.2609 20.0144 96.2609 18.7854C96.2609 17.5973 96.534 16.5321 97.0939 15.6035C97.6538 14.6749 98.4322 13.9511 99.4291 13.4459C100.426 12.9269 101.546 12.6675 102.761 12.6675ZM99.5384 18.7717C99.5384 19.9598 99.8251 20.902 100.412 21.6121C100.986 22.3222 101.764 22.6773 102.748 22.6773C103.758 22.6773 104.564 22.3359 105.151 21.6668C105.738 20.984 106.025 20.0144 106.025 18.758C106.025 17.5563 105.725 16.6277 105.137 15.9722C104.55 15.3167 103.744 14.989 102.748 14.989C101.805 14.989 101.027 15.3304 100.44 16.0268C99.8251 16.7096 99.5384 17.6383 99.5384 18.7717Z" fill="#32CD32"/>
<path d="M124.117 12.8711C124.117 14.4609 123.573 15.6855 122.484 16.5449C121.403 17.3971 119.853 17.8232 117.833 17.8232H115.985V24H114.159V8.29492H118.23C122.155 8.29492 124.117 9.82031 124.117 12.8711ZM115.985 16.2549H117.629C119.247 16.2549 120.418 15.9935 121.142 15.4707C121.865 14.9479 122.227 14.11 122.227 12.957C122.227 11.9186 121.886 11.1452 121.206 10.6367C120.526 10.1283 119.466 9.87402 118.026 9.87402H115.985V16.2549ZM128.93 24H127.146V7.28516H128.93V24ZM134.387 12.2266V19.8643C134.387 20.8239 134.605 21.54 135.042 22.0127C135.479 22.4854 136.163 22.7217 137.094 22.7217C138.326 22.7217 139.224 22.3851 139.79 21.7119C140.363 21.0387 140.649 19.9395 140.649 18.4141V12.2266H142.433V24H140.961L140.703 22.4209H140.606C140.241 23.001 139.733 23.445 139.081 23.7529C138.437 24.0609 137.699 24.2148 136.868 24.2148C135.436 24.2148 134.362 23.8747 133.646 23.1943C132.937 22.514 132.582 21.4255 132.582 19.9287V12.2266H134.387ZM153.819 20.7881C153.819 21.8838 153.411 22.7288 152.595 23.3232C151.778 23.9176 150.632 24.2148 149.157 24.2148C147.596 24.2148 146.379 23.9678 145.505 23.4736V21.8193C146.071 22.1058 146.676 22.3314 147.32 22.4961C147.972 22.6608 148.599 22.7432 149.2 22.7432C150.131 22.7432 150.847 22.5964 151.349 22.3027C151.85 22.002 152.101 21.5472 152.101 20.9385C152.101 20.4801 151.9 20.0898 151.499 19.7676C151.105 19.4382 150.332 19.0514 149.179 18.6074C148.083 18.1992 147.302 17.8447 146.837 17.5439C146.379 17.236 146.035 16.8887 145.806 16.502C145.584 16.1152 145.473 15.6533 145.473 15.1162C145.473 14.1566 145.863 13.401 146.644 12.8496C147.424 12.291 148.495 12.0117 149.855 12.0117C151.123 12.0117 152.362 12.2695 153.572 12.7852L152.938 14.2354C151.757 13.7484 150.686 13.5049 149.727 13.5049C148.882 13.5049 148.244 13.6374 147.814 13.9023C147.385 14.1673 147.17 14.5326 147.17 14.998C147.17 15.3132 147.249 15.5817 147.406 15.8037C147.571 16.0257 147.832 16.237 148.19 16.4375C148.549 16.638 149.236 16.9281 150.253 17.3076C151.649 17.8161 152.591 18.3281 153.078 18.8438C153.572 19.3594 153.819 20.0075 153.819 20.7881Z" fill="#626262"/>
</svg>
